umbra-11.ufo
<glyph name="quotedbl" format="1">
  <advance width="390"/>
  <unicode hex="0022"/>
  <outline>
    <contour>
      <point x="-336" y="398" type="line"/>
      <point x="-366" y="608" type="line"/>
      <point x="-236" y="608" type="line"/>
      <point x="-266" y="398" type="line"/>
    </contour>
    <contour>
      <point x="-166" y="398" type="line"/>
      <point x="-196" y="608" type="line"/>
      <point x="-66" y="608" type="line"/>
      <point x="-96" y="398" type="line"/>
    </contour>
  </outline>
</glyph>
<glyph name="dollar" format="1">
  <advance width="449"/>
  <unicode hex="0024"/>
  <outline>
    <contour>
      <point x="-132" y="258" type="curve" smooth="yes"/>
      <point x="-132" y="318"/>
      <point x="-365" y="321"/>
      <point x="-365" y="471" type="curve" smooth="yes"/>
      <point x="-365" y="550"/>
      <point x="-309" y="601"/>
      <point x="-231" y="617" type="curve"/>
      <point x="-246" y="678" type="line"/>
      <point x="-106" y="678" type="line"/>
      <point x="-121" y="617" type="line"/>
      <point x="-75" y="605"/>
      <point x="-33" y="578"/>
      <point x="4" y="536" type="curve"/>
      <point x="-36" y="426" type="line"/>
      <point x="-76" y="464"/>
      <point x="-124" y="503"/>
      <point x="-172" y="503" type="curve" smooth="yes"/>
      <point x="-200" y="503"/>
      <point x="-210" y="489"/>
      <point x="-210" y="471" type="curve" smooth="yes"/>
      <point x="-210" y="411"/>
      <point x="13" y="404"/>
      <point x="13" y="260" type="curve" smooth="yes"/>
      <point x="13" y="155"/>
      <point x="-52" y="110"/>
      <point x="-135" y="97" type="curve"/>
      <point x="-119" y="33" type="line"/>
      <point x="-259" y="33" type="line"/>
      <point x="-243" y="97" type="line"/>
      <point x="-312" y="107"/>
      <point x="-364" y="137"/>
      <point x="-396" y="175" type="curve"/>
      <point x="-356" y="290" type="line"/>
      <point x="-316" y="252"/>
      <point x="-247" y="218"/>
      <point x="-199" y="218" type="curve" smooth="yes"/>
      <point x="-161" y="218"/>
      <point x="-132" y="227"/>
    </contour>
  </outline>
</glyph>
<glyph name="percent" format="1">
  <advance width="641"/>
  <unicode hex="0025"/>
  <outline>
    <contour>
      <point x="-311" y="108" type="line"/>
      <point x="-1" y="608" type="line"/>
      <point x="129" y="608" type="line"/>
      <point x="-181" y="108" type="line"/>
    </contour>
    <contour>
      <point x="-261" y="416" type="line"/>
      <point x="-366" y="521" type="line"/>
      <point x="-261" y="627" type="line"/>
      <point x="-155" y="521" type="line"/>
    </contour>
    <contour>
      <point x="79" y="80" type="line"/>
      <point x="-26" y="185" type="line"/>
      <point x="79" y="291" type="line"/>
      <point x="185" y="185" type="line"/>
    </contour>
  </outline>
</glyph>
<glyph name="parenleft" format="1">
  <advance width="232"/>
  <unicode hex="0028"/>
  <outline>
    <contour>
      <point x="-269" y="68" type="line"/>
      <point x="-344" y="153"/>
      <point x="-381" y="258"/>
      <point x="-381" y="363" type="curve" smooth="yes"/>
      <point x="-381" y="468"/>
      <point x="-344" y="573"/>
      <point x="-269" y="658" type="curve"/>
      <point x="-179" y="658" type="line"/>
      <point x="-229" y="583"/>
      <point x="-253" y="473"/>
      <point x="-253" y="363" type="curve" smooth="yes"/>
      <point x="-253" y="253"/>
      <point x="-229" y="143"/>
      <point x="-179" y="68" type="curve"/>
    </contour>
  </outline>
</glyph>
<glyph name="parenright" format="1">
  <advance width="232"/>
  <unicode hex="0029"/>
  <outline>
    <contour>
      <point x="-321" y="659" type="line"/>
      <point x="-246" y="574"/>
      <point x="-209" y="469"/>
      <point x="-209" y="364" type="curve" smooth="yes"/>
      <point x="-209" y="259"/>
      <point x="-246" y="154"/>
      <point x="-321" y="69" type="curve"/>
      <point x="-411" y="69" type="line"/>
      <point x="-361" y="144"/>
      <point x="-337" y="254"/>
      <point x="-337" y="364" type="curve" smooth="yes"/>
      <point x="-337" y="474"/>
      <point x="-361" y="584"/>
      <point x="-411" y="659" type="curve"/>
    </contour>
  </outline>
</glyph>
<glyph name="two" format="1">
  <advance width="458"/>
  <unicode hex="0032"/>
  <outline>
    <contour>
      <point x="12" y="451" type="curve" smooth="yes"/>
      <point x="12" y="355"/>
      <point x="-101" y="292"/>
      <point x="-185" y="230" type="curve"/>
      <point x="9" y="230" type="line"/>
      <point x="9" y="110" type="line"/>
      <point x="-381" y="110" type="line"/>
      <point x="-381" y="260"/>
      <point x="-133" y="383"/>
      <point x="-133" y="453" type="curve" smooth="yes"/>
      <point x="-133" y="474"/>
      <point x="-152" y="498"/>
      <point x="-200" y="498" type="curve" smooth="yes"/>
      <point x="-248" y="498"/>
      <point x="-297" y="459"/>
      <point x="-337" y="421" type="curve"/>
      <point x="-377" y="536" type="line"/>
      <point x="-337" y="583"/>
      <point x="-277" y="618"/>
      <point x="-180" y="618" type="curve" smooth="yes"/>
      <point x="-103" y="618"/>
      <point x="12" y="578"/>
    </contour>
  </outline>
</glyph>
<glyph name="three" format="1">
  <advance width="464"/>
  <unicode hex="0033"/>
  <outline>
    <contour>
      <point x="-254" y="317" type="line"/>
      <point x="-254" y="412" type="line"/>
      <point x="-204" y="412" type="line" smooth="yes"/>
      <point x="-156" y="412"/>
      <point x="-147" y="437"/>
      <point x="-147" y="465" type="curve" smooth="yes"/>
      <point x="-147" y="488"/>
      <point x="-161" y="503"/>
      <point x="-189" y="503" type="curve" smooth="yes"/>
      <point x="-237" y="503"/>
      <point x="-285" y="464"/>
      <point x="-325" y="426" type="curve"/>
      <point x="-365" y="536" type="line"/>
      <point x="-315" y="593"/>
      <point x="-255" y="623"/>
      <point x="-188" y="623" type="curve" smooth="yes"/>
      <point x="-81" y="623"/>
      <point x="4" y="578"/>
      <point x="4" y="481" type="curve" smooth="yes"/>
      <point x="4" y="426"/>
      <point x="-22" y="393"/>
      <point x="-67" y="375" type="curve"/>
      <point x="-13" y="355"/>
      <point x="18" y="316"/>
      <point x="18" y="260" type="curve" smooth="yes"/>
      <point x="18" y="133"/>
      <point x="-107" y="93"/>
      <point x="-184" y="93" type="curve" smooth="yes"/>
      <point x="-281" y="93"/>
      <point x="-351" y="128"/>
      <point x="-391" y="175" type="curve"/>
      <point x="-351" y="290" type="line"/>
      <point x="-311" y="252"/>
      <point x="-252" y="218"/>
      <point x="-204" y="218" type="curve" smooth="yes"/>
      <point x="-156" y="218"/>
      <point x="-127" y="227"/>
      <point x="-127" y="268" type="curve" smooth="yes"/>
      <point x="-127" y="306"/>
      <point x="-156" y="317"/>
      <point x="-204" y="317" type="curve" smooth="yes"/>
    </contour>
  </outline>
</glyph>
<glyph name="colon" format="1">
  <advance width="291"/>
  <unicode hex="003A"/>
  <outline>
    <contour>
      <point x="-266" y="365" type="line"/>
      <point x="-371" y="470" type="line"/>
      <point x="-266" y="576" type="line"/>
      <point x="-160" y="470" type="line"/>
    </contour>
    <contour>
      <point x="-266" y="80" type="line"/>
      <point x="-371" y="185" type="line"/>
      <point x="-266" y="291" type="line"/>
      <point x="-160" y="185" type="line"/>
    </contour>
  </outline>
</glyph>
<glyph name="G" format="1">
  <advance width="555"/>
  <unicode hex="0047"/>
  <outline>
    <contour>
      <point x="-236" y="358" type="curve" smooth="yes"/>
      <point x="-236" y="265"/>
      <point x="-163" y="213"/>
      <point x="-106" y="213" type="curve" smooth="yes"/>
      <point x="-72" y="213"/>
      <point x="-44" y="220"/>
      <point x="-21" y="232" type="curve"/>
      <point x="-21" y="303" type="line"/>
      <point x="-131" y="303" type="line"/>
      <point x="-131" y="398" type="line"/>
      <point x="109" y="398" type="line"/>
      <point x="109" y="182" type="line"/>
      <point x="57" y="130"/>
      <point x="-25" y="88"/>
      <point x="-106" y="88" type="curve" smooth="yes"/>
      <point x="-261" y="88"/>
      <point x="-381" y="209"/>
      <point x="-381" y="358" type="curve" smooth="yes"/>
      <point x="-381" y="507"/>
      <point x="-271" y="628"/>
      <point x="-96" y="628" type="curve" smooth="yes"/>
      <point x="-15" y="628"/>
      <point x="32" y="606"/>
      <point x="64" y="574" type="curve"/>
      <point x="24" y="447" type="line"/>
      <point x="-1" y="480"/>
      <point x="-45" y="503"/>
      <point x="-106" y="503" type="curve" smooth="yes"/>
      <point x="-163" y="503"/>
      <point x="-236" y="451"/>
    </contour>
  </outline>
</glyph>
<glyph name="H" format="1">
  <advance width="560"/>
  <unicode hex="0048"/>
  <outline>
    <contour>
      <point x="-366" y="108" type="line"/>
      <point x="-366" y="608" type="line"/>
      <point x="-226" y="608" type="line"/>
      <point x="-226" y="418" type="line"/>
      <point x="-36" y="418" type="line"/>
      <point x="-36" y="608" type="line"/>
      <point x="104" y="608" type="line"/>
      <point x="104" y="108" type="line"/>
      <point x="-36" y="108" type="line"/>
      <point x="-36" y="298" type="line"/>
      <point x="-226" y="298" type="line"/>
      <point x="-226" y="108" type="line"/>
    </contour>
  </outline>
</glyph>
<glyph name="K" format="1">
  <advance width="525"/>
  <unicode hex="004B"/>
  <outline>
    <contour>
      <point x="-366" y="108" type="line"/>
      <point x="-366" y="608" type="line"/>
      <point x="-226" y="608" type="line"/>
      <point x="-226" y="401" type="line"/>
      <point x="-66" y="608" type="line"/>
      <point x="104" y="608" type="line"/>
      <point x="-76" y="388" type="line"/>
      <point x="114" y="108" type="line"/>
      <point x="-66" y="108" type="line"/>
      <point x="-226" y="344" type="line"/>
      <point x="-226" y="108" type="line"/>
    </contour>
  </outline>
</glyph>
<glyph name="N" format="1">
  <advance width="590"/>
  <unicode hex="004E"/>
  <outline>
    <contour>
      <point x="-366" y="108" type="line"/>
      <point x="-366" y="608" type="line"/>
      <point x="-196" y="608" type="line"/>
      <point x="-6" y="291" type="line"/>
      <point x="-6" y="608" type="line"/>
      <point x="134" y="608" type="line"/>
      <point x="134" y="108" type="line"/>
      <point x="-36" y="108" type="line"/>
      <point x="-226" y="425" type="line"/>
      <point x="-226" y="108" type="line"/>
    </contour>
  </outline>
</glyph>
<glyph name="P" format="1">
  <advance width="487"/>
  <unicode hex="0050"/>
  <outline>
    <contour>
      <point x="-366" y="108" type="line"/>
      <point x="-366" y="608" type="line"/>
      <point x="-293" y="608"/>
      <point x="-219" y="608"/>
      <point x="-146" y="608" type="curve" smooth="yes"/>
      <point x="-29" y="608"/>
      <point x="56" y="533"/>
      <point x="56" y="426" type="curve" smooth="yes"/>
      <point x="56" y="309"/>
      <point x="-29" y="243"/>
      <point x="-146" y="243" type="curve" smooth="yes"/>
      <point x="-226" y="243" type="line"/>
      <point x="-226" y="108" type="line"/>
    </contour>
    <contour>
      <point x="-156" y="493" type="curve" smooth="yes"/>
      <point x="-226" y="493" type="line"/>
      <point x="-226" y="358" type="line"/>
      <point x="-156" y="358" type="line" smooth="yes"/>
      <point x="-118" y="358"/>
      <point x="-89" y="378"/>
      <point x="-89" y="426" type="curve" smooth="yes"/>
      <point x="-89" y="474"/>
      <point x="-118" y="493"/>
    </contour>
  </outline>
</glyph>
<glyph name="R" format="1">
  <advance width="515"/>
  <unicode hex="0052"/>
  <outline>
    <contour>
      <point x="-366" y="108" type="line"/>
      <point x="-366" y="608" type="line"/>
      <point x="-293" y="608"/>
      <point x="-219" y="608"/>
      <point x="-146" y="608" type="curve" smooth="yes"/>
      <point x="-29" y="608"/>
      <point x="56" y="563"/>
      <point x="56" y="436" type="curve" smooth="yes"/>
      <point x="56" y="357"/>
      <point x="9" y="316"/>
      <point x="-63" y="301" type="curve"/>
      <point x="84" y="108" type="line"/>
      <point x="-76" y="108" type="line"/>
      <point x="-226" y="298" type="line"/>
      <point x="-226" y="108" type="line"/>
    </contour>
    <contour>
      <point x="-159" y="493" type="curve" smooth="yes"/>
      <point x="-226" y="493" type="line"/>
      <point x="-226" y="378" type="line"/>
      <point x="-159" y="378" type="line" smooth="yes"/>
      <point x="-121" y="378"/>
      <point x="-89" y="388"/>
      <point x="-89" y="436" type="curve" smooth="yes"/>
      <point x="-89" y="484"/>
      <point x="-121" y="493"/>
    </contour>
  </outline>
</glyph>
<glyph name="S" format="1">
  <advance width="449"/>
  <unicode hex="0053"/>
  <outline>
    <contour>
      <point x="-132" y="258" type="curve" smooth="yes"/>
      <point x="-132" y="318"/>
      <point x="-365" y="321"/>
      <point x="-365" y="471" type="curve" smooth="yes"/>
      <point x="-365" y="568"/>
      <point x="-280" y="623"/>
      <point x="-173" y="623" type="curve" smooth="yes"/>
      <point x="-106" y="623"/>
      <point x="-46" y="593"/>
      <point x="4" y="536" type="curve"/>
      <point x="-36" y="426" type="line"/>
      <point x="-76" y="464"/>
      <point x="-124" y="503"/>
      <point x="-172" y="503" type="curve" smooth="yes"/>
      <point x="-200" y="503"/>
      <point x="-210" y="489"/>
      <point x="-210" y="471" type="curve" smooth="yes"/>
      <point x="-210" y="411"/>
      <point x="13" y="404"/>
      <point x="13" y="260" type="curve" smooth="yes"/>
      <point x="13" y="133"/>
      <point x="-82" y="93"/>
      <point x="-189" y="93" type="curve" smooth="yes"/>
      <point x="-286" y="93"/>
      <point x="-356" y="128"/>
      <point x="-396" y="175" type="curve"/>
      <point x="-356" y="290" type="line"/>
      <point x="-316" y="252"/>
      <point x="-247" y="218"/>
      <point x="-199" y="218" type="curve" smooth="yes"/>
      <point x="-161" y="218"/>
      <point x="-132" y="227"/>
    </contour>
  </outline>
</glyph>
<glyph name="U" format="1">
  <advance width="554"/>
  <unicode hex="0055"/>
  <outline>
    <contour>
      <point x="-226" y="330" type="line" smooth="yes"/>
      <point x="-226" y="262"/>
      <point x="-192" y="223"/>
      <point x="-134" y="223" type="curve" smooth="yes"/>
      <point x="-76" y="223"/>
      <point x="-42" y="262"/>
      <point x="-42" y="330" type="curve" smooth="yes"/>
      <point x="-42" y="608" type="line"/>
      <point x="98" y="608" type="line"/>
      <point x="98" y="330" type="line" smooth="yes"/>
      <point x="98" y="183"/>
      <point x="23" y="98"/>
      <point x="-134" y="98" type="curve" smooth="yes"/>
      <point x="-291" y="98"/>
      <point x="-366" y="193"/>
      <point x="-366" y="330" type="curve" smooth="yes"/>
      <point x="-366" y="608" type="line"/>
      <point x="-226" y="608" type="line"/>
    </contour>
  </outline>
</glyph>
<glyph name="Y" format="1">
  <advance width="540"/>
  <unicode hex="0059"/>
  <outline>
    <contour>
      <point x="-71" y="288" type="line"/>
      <point x="-71" y="108" type="line"/>
      <point x="-211" y="108" type="line"/>
      <point x="-211" y="288" type="line"/>
      <point x="-401" y="608" type="line"/>
      <point x="-241" y="608" type="line"/>
      <point x="-141" y="408" type="line"/>
      <point x="-41" y="608" type="line"/>
      <point x="119" y="608" type="line"/>
    </contour>
  </outline>
</glyph>
<glyph name="c" format="1">
  <advance width="404"/>
  <unicode hex="0063"/>
  <outline>
    <contour>
      <point x="-376" y="300" type="curve" smooth="yes"/>
      <point x="-376" y="427"/>
      <point x="-281" y="503"/>
      <point x="-164" y="503" type="curve" smooth="yes"/>
      <point x="-126" y="503"/>
      <point x="-78" y="492"/>
      <point x="-52" y="468" type="curve"/>
      <point x="-92" y="365" type="line"/>
      <point x="-104" y="380"/>
      <point x="-131" y="393"/>
      <point x="-154" y="393" type="curve" smooth="yes"/>
      <point x="-212" y="393"/>
      <point x="-241" y="348"/>
      <point x="-241" y="300" type="curve" smooth="yes"/>
      <point x="-241" y="252"/>
      <point x="-212" y="208"/>
      <point x="-154" y="208" type="curve" smooth="yes"/>
      <point x="-131" y="208"/>
      <point x="-104" y="222"/>
      <point x="-92" y="236" type="curve"/>
      <point x="-52" y="133" type="line"/>
      <point x="-78" y="109"/>
      <point x="-126" y="98"/>
      <point x="-164" y="98" type="curve" smooth="yes"/>
      <point x="-281" y="98"/>
      <point x="-376" y="183"/>
    </contour>
  </outline>
</glyph>
<glyph name="e" format="1">
  <advance width="469"/>
  <unicode hex="0065"/>
  <outline>
    <contour>
      <point x="-371" y="300" type="curve" smooth="yes"/>
      <point x="-371" y="427"/>
      <point x="-286" y="503"/>
      <point x="-169" y="503" type="curve" smooth="yes"/>
      <point x="-52" y="503"/>
      <point x="23" y="427"/>
      <point x="23" y="320" type="curve"/>
      <point x="-219" y="231" type="line"/>
      <point x="-203" y="211"/>
      <point x="-180" y="198"/>
      <point x="-149" y="198" type="curve" smooth="yes"/>
      <point x="-106" y="198"/>
      <point x="-79" y="222"/>
      <point x="-57" y="256" type="curve"/>
      <point x="3" y="163" type="line"/>
      <point x="-33" y="119"/>
      <point x="-91" y="98"/>
      <point x="-159" y="98" type="curve" smooth="yes"/>
      <point x="-276" y="98"/>
      <point x="-371" y="173"/>
    </contour>
    <contour>
      <point x="-93" y="374" type="line"/>
      <point x="-108" y="394"/>
      <point x="-132" y="407"/>
      <point x="-166" y="407" type="curve" smooth="yes"/>
      <point x="-221" y="407"/>
      <point x="-243" y="361"/>
      <point x="-246" y="316" type="curve"/>
    </contour>
  </outline>
</glyph>
<glyph name="i" format="1">
  <advance width="271"/>
  <unicode hex="0069"/>
  <outline>
    <contour>
      <point x="-343" y="108" type="line"/>
      <point x="-343" y="493" type="line"/>
      <point x="-208" y="493" type="line"/>
      <point x="-208" y="108" type="line"/>
    </contour>
    <contour>
      <point x="-276" y="550" type="line"/>
      <point x="-371" y="645" type="line"/>
      <point x="-276" y="741" type="line"/>
      <point x="-180" y="645" type="line"/>
    </contour>
  </outline>
</glyph>
<glyph name="o" format="1">
  <advance width="474"/>
  <unicode hex="006F"/>
  <outline>
    <contour>
      <point x="-246" y="300" type="curve" smooth="yes"/>
      <point x="-246" y="252"/>
      <point x="-222" y="213"/>
      <point x="-174" y="213" type="curve" smooth="yes"/>
      <point x="-126" y="213"/>
      <point x="-102" y="252"/>
      <point x="-102" y="300" type="curve" smooth="yes"/>
      <point x="-102" y="348"/>
      <point x="-126" y="388"/>
      <point x="-174" y="388" type="curve" smooth="yes"/>
      <point x="-222" y="388"/>
      <point x="-246" y="348"/>
    </contour>
    <contour>
      <point x="-376" y="300" type="curve" smooth="yes"/>
      <point x="-376" y="427"/>
      <point x="-291" y="503"/>
      <point x="-174" y="503" type="curve" smooth="yes"/>
      <point x="-57" y="503"/>
      <point x="28" y="427"/>
      <point x="28" y="300" type="curve" smooth="yes"/>
      <point x="28" y="173"/>
      <point x="-57" y="98"/>
      <point x="-174" y="98" type="curve" smooth="yes"/>
      <point x="-291" y="98"/>
      <point x="-376" y="183"/>
    </contour>
  </outline>
</glyph>
<glyph name="q" format="1">
  <advance width="499"/>
  <unicode hex="0071"/>
  <outline>
    <contour>
      <point x="53" y="493" type="line"/>
      <point x="53" y="-37" type="line"/>
      <point x="-82" y="-37" type="line"/>
      <point x="-82" y="147" type="line"/>
      <point x="-113" y="116"/>
      <point x="-154" y="98"/>
      <point x="-199" y="98" type="curve" smooth="yes"/>
      <point x="-306" y="98"/>
      <point x="-371" y="184"/>
      <point x="-371" y="301" type="curve" smooth="yes"/>
      <point x="-371" y="418"/>
      <point x="-306" y="503"/>
      <point x="-199" y="503" type="curve" smooth="yes"/>
      <point x="-154" y="503"/>
      <point x="-113" y="483"/>
      <point x="-82" y="451" type="curve"/>
      <point x="-82" y="493" type="line"/>
    </contour>
    <contour>
      <point x="-82" y="360" type="line"/>
      <point x="-101" y="384"/>
      <point x="-130" y="398"/>
      <point x="-159" y="398" type="curve" smooth="yes"/>
      <point x="-207" y="398"/>
      <point x="-236" y="359"/>
      <point x="-236" y="301" type="curve" smooth="yes"/>
      <point x="-236" y="243"/>
      <point x="-207" y="203"/>
      <point x="-159" y="203" type="curve" smooth="yes"/>
      <point x="-130" y="203"/>
      <point x="-101" y="218"/>
      <point x="-82" y="242" type="curve"/>
    </contour>
  </outline>
</glyph>
<glyph name="w" format="1">
  <advance width="695"/>
  <unicode hex="0077"/>
  <outline>
    <contour>
      <point x="-276" y="108" type="line"/>
      <point x="-396" y="493" type="line"/>
      <point x="-251" y="493" type="line"/>
      <point x="-198" y="236" type="line"/>
      <point x="-121" y="493" type="line"/>
      <point x="-6" y="493" type="line"/>
      <point x="77" y="236" type="line"/>
      <point x="124" y="493" type="line"/>
      <point x="269" y="493" type="line"/>
      <point x="159" y="108" type="line"/>
      <point x="14" y="108" type="line"/>
      <point x="-62" y="315" type="line"/>
      <point x="-131" y="108" type="line"/>
    </contour>
  </outline>
</glyph>
<glyph name="y" format="1">
  <advance width="470"/>
  <unicode hex="0079"/>
  <outline>
    <contour>
      <point x="-231" y="139" type="line"/>
      <point x="-401" y="493" type="line"/>
      <point x="-246" y="493" type="line"/>
      <point x="-172" y="290" type="line"/>
      <point x="-91" y="493" type="line"/>
      <point x="49" y="493" type="line"/>
      <point x="-171" y="-37" type="line"/>
      <point x="-301" y="-37" type="line"/>
    </contour>
  </outline>
</glyph>
<glyph name="quotedblleft" format="1">
  <advance width="430"/>
  <unicode hex="201C"/>
  <outline>
    <contour>
      <point x="-26" y="648" type="line"/>
      <point x="-26" y="388" type="line"/>
      <point x="-156" y="388" type="line"/>
      <point x="-156" y="528" type="line"/>
    </contour>
    <contour>
      <point x="-236" y="648" type="line"/>
      <point x="-236" y="388" type="line"/>
      <point x="-366" y="388" type="line"/>
      <point x="-366" y="528" type="line"/>
    </contour>
  </outline>
</glyph>
